<svg width="1440" height="512" viewBox="0 0 1440 512" xmlns="http://www.w3.org/2000/svg">
  <rect x="0" y="0" width="1440" height="512" fill="transparent"/>
  <rect x="350" y="330" width="146" height="440" rx="73" fill="#F8F4E6"/>
  <rect x="477" y="403" width="111" height="341" rx="55.5" fill="#F8F4E6"/>
  <rect x="533" y="374" width="73" height="790" rx="36.5" fill="#F8F4E6"/>
  <rect x="615" y="438" width="96" height="730" rx="48" fill="#F8F4E6"/>
  <rect x="615" y="397" width="96" height="771" rx="48" fill="#F8F4E6"/>
  <rect x="740" y="488" width="83" height="704" rx="41.5" fill="#F8F4E6"/>
  <rect x="615" y="397" width="96" height="771" rx="48" fill="#F8F4E6"/>
  <rect x="477" y="351" width="89" height="704" rx="44.5" fill="#F8F4E6"/>
  <rect x="615" y="397" width="96" height="771" rx="48" fill="#F8F4E6"/>
  <rect x="687" y="407" width="83" height="704" rx="41.5" fill="#F8F4E6"/>
  <rect x="615" y="397" width="96" height="771" rx="48" fill="#F8F4E6"/>
  <rect x="622" y="425" width="83" height="704" rx="41.5" fill="#F8F4E6"/>
  <rect x="615" y="397" width="96" height="771" rx="48" fill="#F8F4E6"/>
  <rect x="606" y="322" width="156" height="725" rx="78" fill="#F8F4E6"/>
  <rect x="716" y="469" width="96" height="771" rx="48" fill="#F8F4E6"/>
  <rect x="697" y="365" width="83" height="704" rx="41.5" fill="#F8F4E6"/>
  <rect x="-59" y="74" width="146" height="611" rx="73" fill="#F8F4E6"/>
  <rect x="63" y="190" width="111" height="341" rx="55.5" fill="#F8F4E6"/>
  <rect x="117" y="287" width="73" height="790" rx="36.5" fill="#F8F4E6"/>
  <rect x="199" y="351" width="96" height="730" rx="48" fill="#F8F4E6"/>
  <rect x="199" y="310" width="96" height="771" rx="48" fill="#F8F4E6"/>
  <rect x="324" y="401" width="83" height="704" rx="41.5" fill="#F8F4E6"/>
  <rect x="199" y="310" width="96" height="771" rx="48" fill="#F8F4E6"/>
  <rect x="180" y="206" width="83" height="704" rx="41.5" fill="#F8F4E6"/>
  <rect x="199" y="310" width="96" height="771" rx="48" fill="#F8F4E6"/>
  <rect x="180" y="206" width="83" height="704" rx="41.5" fill="#F8F4E6"/>
  <rect x="199" y="310" width="96" height="771" rx="48" fill="#F8F4E6"/>
  <rect x="180" y="206" width="83" height="704" rx="41.5" fill="#F8F4E6"/>
  <rect x="199" y="310" width="96" height="771" rx="48" fill="#F8F4E6"/>
  <rect x="180" y="206" width="83" height="704" rx="41.5" fill="#F8F4E6"/>
  <rect x="300" y="382" width="96" height="771" rx="48" fill="#F8F4E6"/>
  <rect x="281" y="278" width="83" height="704" rx="41.5" fill="#F8F4E6"/>
  <rect x="741" y="322" width="146" height="440" rx="73" fill="#F8F4E6"/>
  <rect x="872" y="278" width="111" height="341" rx="55.5" fill="#F8F4E6"/>
  <rect x="926" y="375" width="73" height="790" rx="36.5" fill="#F8F4E6"/>
  <rect x="1008" y="439" width="96" height="730" rx="48" fill="#F8F4E6"/>
  <rect x="1008" y="398" width="96" height="771" rx="48" fill="#F8F4E6"/>
  <rect x="1133" y="489" width="83" height="704" rx="41.5" fill="#F8F4E6"/>
  <rect x="1008" y="398" width="96" height="771" rx="48" fill="#F8F4E6"/>
  <rect x="989" y="294" width="83" height="704" rx="41.5" fill="#F8F4E6"/>
  <rect x="1008" y="398" width="96" height="771" rx="48" fill="#F8F4E6"/>
  <rect x="989" y="294" width="83" height="704" rx="41.5" fill="#F8F4E6"/>
  <rect x="1008" y="398" width="96" height="771" rx="48" fill="#F8F4E6"/>
  <rect x="989" y="294" width="83" height="704" rx="41.5" fill="#F8F4E6"/>
  <rect x="1008" y="398" width="96" height="771" rx="48" fill="#F8F4E6"/>
  <rect x="989" y="294" width="83" height="704" rx="41.5" fill="#F8F4E6"/>
  <rect x="1253" y="203" width="83" height="704" rx="41.5" fill="#F8F4E6"/>
  <rect x="1109" y="470" width="96" height="771" rx="48" fill="#F8F4E6"/>
  <rect x="1067" y="287" width="83" height="795" rx="41.5" fill="#F8F4E6"/>
  <rect width="136" height="611" rx="68" transform="matrix(-1 0 0 1 1460 0)" fill="#F8F4E6"/>
  <rect width="96" height="415" rx="48" transform="matrix(-1 0 0 1 1364 143)" fill="#F8F4E6"/>
  <rect width="96" height="511" rx="48" transform="matrix(-1 0 0 1 1262 76)" fill="#F8F4E6"/>
  <rect width="96" height="421" rx="48" transform="matrix(-1 0 0 1 1222 207)" fill="#F8F4E6"/>
  <rect width="96" height="309" rx="48" transform="matrix(-1 0 0 1 1047 332)" fill="#F8F4E6"/>
</svg>
